<?xml version="1.0" encoding="utf-8"?>
<svg version="1.1" id="Layer_1" xmlns="http://www.w3.org/2000/svg" xmlns:xlink="http://www.w3.org/1999/xlink" x="0px" y="0px"
	 viewBox="0 0 1583 610" style="enable-background:new 0 0 1583 610;" xml:space="preserve">
<style type="text/css">
	.st0{fill:#EBEBEB;}
	.st1{fill:none;stroke:#BAC284;stroke-width:2;stroke-miterlimit:10;}
	.st2{fill:#BAC284;}
	.st3{fill:#DFE2CB;}
</style>
<g>
	<rect x="-48" y="2" class="st0" width="1631" height="608"/>
</g>
<path class="st1" d="M684.67,41.55c-6.2-9.2-19.34-13.3-27.71-8.93C663.35,41.5,674.35,45.15,684.67,41.55z"/>
<path class="st1" d="M684.73,68.98c-1.77-10.95-11.97-20.19-21.4-19.75C665.41,59.98,673.85,67.91,684.73,68.98z"/>
<path class="st1" d="M632.9,61.12c10.28-4.57,16.95-16.5,14.47-25.29C638.03,39.67,632.25,49.59,632.9,61.12z"/>
<path class="st1" d="M645.51,83.26c9.04-7.02,12.42-20.26,7.5-28.16C644.72,61.18,641.68,72.25,645.51,83.26z"/>
<path class="st1" d="M668.61,110.95c5.76-9.89,3.95-23.43-3.57-28.92C659.61,90.76,660.93,102.17,668.61,110.95z"/>
<path class="st1" d="M631.56,0.32c0,0,25.47,25.6,32.04,77.01"/>
<path class="st1" d="M761.61,134.19c6.2-9.2,19.34-13.3,27.71-8.93C782.93,134.13,771.93,137.78,761.61,134.19z"/>
<path class="st1" d="M762.55,167.62c1.77-10.95,11.97-20.19,21.4-19.75C781.87,158.61,773.43,166.55,762.55,167.62z"/>
<path class="st1" d="M825.38,159.75c-10.28-4.57-16.95-16.5-14.47-25.29C820.25,138.3,826.03,148.22,825.38,159.75z"/>
<path class="st1" d="M810.76,183.9c-9.04-7.02-12.42-20.26-7.5-28.16C811.56,161.81,814.6,172.88,810.76,183.9z"/>
<path class="st1" d="M784.67,205.59c-5.76-9.89-3.95-23.43,3.57-28.92C793.67,185.4,792.35,196.8,784.67,205.59z"/>
<path class="st1" d="M867.91,0.78c0,0-55.27,59.13-79.23,168.18"/>
<path class="st1" d="M1019.58,364.68c2.22-12.96-5.69-27.24-16.44-30.36C1001.34,347.17,1007.78,359.31,1019.58,364.68z"/>
<path class="st1" d="M1031.63,325.15c-0.92-13.12-11.98-25.12-23.16-25.6C1009.77,312.46,1018.9,322.73,1031.63,325.15z"/>
<path class="st1" d="M1031.64,281.56c-7.48-10.82-23.12-15.5-32.98-10.21C1006.37,281.79,1019.46,285.96,1031.64,281.56z"/>
<path class="st1" d="M991.39,392.57c7.46-10.84,6.28-27.11-2.17-34.46C982.19,369.02,982.94,382.74,991.39,392.57z"/>
<path class="st1" d="M936.03,327.05c11.81,6.2,27.81,3.63,34.16-5.14C959.75,316.04,946.28,317.97,936.03,327.05z"/>
<path class="st1" d="M932.17,301.42c13.3,1.02,26.98-7.67,29.34-18.24C949.6,281.92,937.99,289.03,932.17,301.42z"/>
<path class="st1" d="M566.03,44.15c10.77-7.36,15.89-22.36,11.22-31.86C567.41,18.61,562.89,31.14,566.03,44.15z"/>
<path class="st1" d="M587.67,87.58c11.38-6.39,17.79-20.88,13.98-30.76C591.27,62.26,585.68,74.34,587.67,87.58z"/>
<path class="st1" d="M557.28,166.68c11.92,5.3,27.37,1.77,33.01-7.19C579.73,154.42,566.7,157.16,557.28,166.68z"/>
<path class="st1" d="M516.53,217.71c12.23,4.54,27.43,0.04,32.49-9.26C538.16,204.07,525.33,207.63,516.53,217.71z"/>
<path class="st1" d="M500.46,288.77c12.76-2.73,23.17-14.68,22.45-25.24C511.39,265.65,502.47,275.54,500.46,288.77z"/>
<path class="st1" d="M509.79,350.55c12.09-4.9,20.28-18.46,17.75-28.74C516.56,325.89,509.49,337.17,509.79,350.55z"/>
<path class="st1" d="M547.55,413.85c9.51-8.93,12.26-24.54,6.18-33.21C544.97,388.41,542.44,401.48,547.55,413.85z"/>
<path class="st1" d="M596.99,452.04c6.18-11.49,3.83-27.16-4.69-33.46C586.46,428.73,588.21,441.93,596.99,452.04z"/>
<path class="st1" d="M655.8,484.09c3.36-12.61-2.54-27.31-12.28-31.47C640.18,463.84,644.93,476.28,655.8,484.09z"/>
<path class="st1" d="M708.82,508.43c4.13-12.38-0.87-27.41-10.34-32.16C694.47,487.26,698.45,499.97,708.82,508.43z"/>
<path class="st1" d="M760.49,524.52c4.38-12.29-0.31-27.43-9.67-32.37C746.57,503.07,750.29,515.85,760.49,524.52z"/>
<path class="st1" d="M803.85,543.07c3.32-12.62-2.63-27.3-12.38-31.43C788.16,522.87,792.95,535.3,803.85,543.07z"/>
<path class="st1" d="M824.66,576.14c8.31-10.06,9.07-25.88,1.95-33.73C818.9,551.22,818.04,564.5,824.66,576.14z"/>
<path class="st1" d="M860.98,588.8c-0.29-13.04-10.06-25.51-20.58-26.79C840.33,573.72,848.36,584.33,860.98,588.8z"/>
<path class="st1" d="M828.39,542.38c8.58,9.83,24.07,13.15,32.96,7.4C853.91,540.73,840.94,537.72,828.39,542.38z"/>
<path class="st1" d="M812.98,527.09c10.06,8.31,25.88,9.07,33.73,1.95C837.89,521.33,824.61,520.47,812.98,527.09z"/>
<path class="st1" d="M771.02,498.97c11.32,6.48,27.05,4.55,33.57-3.8C794.6,489.07,781.36,490.47,771.02,498.97z"/>
<path class="st1" d="M670.17,465.08c11.73,5.72,27.29,2.75,33.24-6.01C693.04,453.64,679.92,455.91,670.17,465.08z"/>
<path class="st1" d="M616.98,436.09c10.06,8.31,25.88,9.07,33.73,1.95C641.89,430.33,628.61,429.47,616.98,436.09z"/>
<path class="st1" d="M570.13,398.75c9.36,9.09,25.07,11.12,33.46,4.65C595.42,395,582.25,393.07,570.13,398.75z"/>
<path class="st1" d="M540.87,357.72c7.53,10.65,22.61,15.53,32.04,10.71C566.43,358.68,553.83,354.37,540.87,357.72z"/>
<path class="st1" d="M523.36,294.86c1.63,12.94,12.64,24.34,23.23,24.53C545.46,307.74,536.38,298,523.36,294.86z"/>
<path class="st1" d="M540,265.04c6.17-11.5,3.8-27.16-4.72-33.45C529.45,241.74,531.22,254.94,540,265.04z"/>
<path class="st1" d="M573.91,218.05c6.24-11.46,3.96-27.14-4.53-33.48C563.49,194.69,565.18,207.9,573.91,218.05z"/>
<path class="st1" d="M619.01,163.01c3.19-12.65-2.91-27.27-12.71-31.3C603.12,142.98,608.04,155.35,619.01,163.01z"/>
<path class="st1" d="M630.31,114.54c-0.62-13.03-10.7-25.25-21.24-26.27C609.29,99.98,617.59,110.39,630.31,114.54z"/>
<path class="st1" d="M591.26,32.7c6.83,11.12,21.56,16.96,31.28,12.76C616.7,35.31,604.41,30.2,591.26,32.7z"/>
<path class="st1" d="M718.43,480.31c12.12,4.83,27.42,0.71,32.71-8.46C740.38,467.2,727.47,470.44,718.43,480.31z"/>
<path class="st1" d="M936.71,367.03c13.5,1.39,27.24-7.2,29.5-18C954.12,347.44,942.45,354.45,936.71,367.03z"/>
<path class="st1" d="M941.32,407c13.04-3.76,22.58-16.86,20.63-27.72C950.14,382.32,941.93,393.18,941.32,407z"/>
<path class="st1" d="M922.99,0.78c0,0-21.68,130.04,34.09,229.91c55.77,99.87,19.32,123.39,19.32,123.39"/>
<g>
	<path class="st1" d="M878.17,80.73c-0.91,3.79-0.37,7.73,1.49,11.16c1.12,2.06,4.25,1.59,4.69-0.72c0.68-3.51-0.04-7.59-1.99-10.99
		l0.16-0.1c2.23,3,5.46,5.08,9.13,5.91c2.26,0.51,3.98-2.13,2.57-3.97c-2.06-2.69-5.35-4.79-8.97-5.67l0.03-0.15
		c3.86,1.03,7.91,0.53,11.43-1.36c2.08-1.12,1.62-4.25-0.7-4.71c-3.62-0.71-7.85,0.05-11.32,2.14l-0.02-0.04
		c3.29-1.7,5.84-4.5,7.26-7.94c0.89-2.16-1.44-4.28-3.5-3.19c-3.13,1.65-5.85,4.73-7.28,8.34l-0.22-0.06
		c0.86-3.45,0.31-7.57-1.52-11.07c-1.08-2.07-4.24-1.61-4.68,0.69c-0.72,3.77-0.02,7.65,1.97,10.98l-0.24,0.15
		c-1.98-2.98-5.45-5.34-9.3-6.32c-2.38-0.6-4.13,2.12-2.61,4.05c2.33,2.96,5.65,4.95,9.4,5.67l-0.1,0.4
		c-3.48-0.95-7.68-0.43-11.25,1.4c-2.09,1.07-1.64,4.25,0.67,4.7c3.86,0.75,7.84,0.02,11.24-2.08l0.07,0.11
		c-3.04,1.53-5.71,4.41-7.23,7.83c-0.97,2.18,1.33,4.44,3.43,3.31c3.41-1.81,6-4.82,7.34-8.5L878.17,80.73z"/>
</g>
<path class="st1" d="M737.17,78.77c0,0-30.23-39.17-17.24-78.88"/>
<path class="st1" d="M880.91,69.39c0,0,22.18-41.29,11.81-69.5"/>
<g>
	<path class="st1" d="M736.23,97.15c-7.68,3.88-14.01,12.68-14.8,22.17c9.93-1.76,17.65-8.49,20.96-17.57l0.12,0.03
		c-2.21,9.15,0.48,18.83,7.44,25.88c5.18-6.85,4.86-18.13-0.15-26.83l0.27-0.17c5.44,7.32,14.26,11.46,23.88,10.91
		c-1.65-8.1-9.76-15.11-19.15-17.4l0.06-0.26c9.27,2.47,19.18-0.14,26.38-7.18c-6.97-5.33-18.63-4.94-27.42,0.35l-0.04-0.07
		c8.03-4.15,13.53-12.09,14.62-21.58c-8.52,0.26-17.06,7.49-20.74,16.75l-0.38-0.1c2.13-8.53-0.72-19.42-7.82-26.18
		c-4.83,8.79-4.45,18.96,0.47,27.21l-0.42,0.25c-4.92-7.39-15.1-12.59-25-11.73c3.39,9.41,11.23,15.84,20.63,17.63l-0.17,0.7
		c-8.56-2.33-19.66,0.44-26.54,7.6c8.93,4.97,19.33,4.54,27.69-0.61L736.23,97.15z"/>
	<circle class="st1" cx="744.76" cy="91.73" r="9.9"/>
</g>
<g>
	<path class="st1" d="M675.22,243.91c-6.89,3.48-12.58,11.39-13.3,19.91c8.92-1.58,15.85-7.63,18.83-15.78l0.11,0.03
		c-1.98,8.22,0.43,16.92,6.68,23.24c4.65-6.15,4.37-16.29-0.13-24.1l0.25-0.15c4.89,6.58,12.81,10.29,21.45,9.8
		c-1.48-7.28-8.77-13.57-17.2-15.62l0.05-0.23c8.33,2.22,17.23-0.13,23.69-6.45c-6.26-4.79-16.73-4.44-24.63,0.31l-0.04-0.06
		c7.22-3.73,12.15-10.86,13.13-19.38c-7.65,0.23-15.32,6.72-18.62,15.04l-0.34-0.09c1.92-7.66-0.64-17.44-7.02-23.52
		c-4.34,7.89-4,17.03,0.42,24.44l-0.38,0.23c-4.42-6.64-13.56-11.31-22.45-10.53c3.04,8.45,10.08,14.22,18.53,15.83l-0.15,0.63
		c-7.69-2.1-17.65,0.39-23.84,6.82c8.02,4.46,17.36,4.07,24.87-0.55L675.22,243.91z"/>
	<path class="st1" d="M672.32,245.72c-6.79,3.43-12.74,9.99-15.92,17.74c-1.8,4.37,2.88,8.65,7.1,6.53
		c7.65-3.85,13.47-10.46,16.43-18.58l0.15,0.04c-2.02,8.36-0.73,17.08,3.56,24.58c2.38,4.16,8.55,3.22,9.58-1.46
		c1.69-7.68,0.2-16.77-4.13-24.29l0.34-0.21c4.93,6.63,12.1,11.15,20.26,12.82c4.65,0.95,8.04-4.28,5.25-8.11
		c-4.4-6.04-11.66-10.77-19.67-12.72l0.07-0.32c8.6,2.29,17.64,1.04,25.38-3.4c3.97-2.28,3.08-8.37-1.38-9.42
		c-7.97-1.87-17.52-0.29-25.28,4.38L694,233.2c7.26-3.75,12.84-10,15.84-17.68c1.73-4.44-2.89-8.63-7.16-6.51
		c-6.98,3.46-13.08,10.23-16.25,18.22l-0.47-0.12c1.91-7.62,0.59-16.77-3.6-24.41c-2.29-4.17-8.57-3.23-9.57,1.42
		c-1.77,8.3-0.31,16.9,4.08,24.26l-0.52,0.31c-4.41-6.63-12.26-11.84-20.9-13.78c-4.64-1.04-8.12,4.27-5.29,8.09
		c5.03,6.8,12.41,11.39,20.8,12.99l-0.21,0.86c-7.68-2.09-17.02-0.86-24.81,3.36c-4.19,2.27-3.3,8.56,1.36,9.58
		c8.51,1.86,17.35,0.32,24.86-4.31L672.32,245.72z"/>
	<path class="st1" d="M669.13,247.71c-7.59,3.83-14.37,10.66-18.75,18.91c-3.79,7.13,4.23,14.84,11.05,10.51
		c8.09-5.14,14.25-12.84,17.6-22.03l0.19,0.05c-2.3,9.52-1.3,19.4,2.73,28.26c3.29,7.24,14.17,5.65,15.02-2.26
		c0.96-9.03-1.15-19.05-6.03-27.53l0.44-0.27c5.59,7.52,13.4,12.95,22.34,15.66c7.66,2.32,13.49-7.04,8.04-12.92
		c-5.76-6.22-13.92-11-22.78-13.15l0.1-0.41c9.72,2.59,19.88,1.7,28.97-2.37c7.32-3.27,5.76-14.19-2.21-15.06
		c-9.34-1.03-19.75,1.23-28.43,6.45l-0.07-0.11c8.22-4.25,14.79-10.96,18.93-19.22c3.61-7.2-4.73-14.45-11.47-10.04
		c-7.44,4.87-13.76,12.6-17.29,21.49l-0.61-0.16c2.14-8.57,1.16-18.61-2.67-27.6c-3.25-7.64-14.32-6-15.18,2.26
		c-0.97,9.34,1.12,18.76,6.03,26.99l-0.67,0.41c-5.02-7.55-13.46-13.67-23.02-16.78c-7.57-2.46-13.65,6.82-8.31,12.71
		c6.35,7.01,14.84,11.74,24.32,13.55l-0.28,1.12c-8.74-2.38-19.12-1.46-28.37,2.49c-7.35,3.13-5.77,14.14,2.16,15.06
		c9.71,1.12,19.53-1.08,28.04-6.32L669.13,247.71z"/>
	<circle class="st1" cx="682.8" cy="238.98" r="7.84"/>
</g>
<path class="st1" d="M807.28,348.78c-4.4,2.22-8.03,7.27-8.49,12.71c5.69-1.01,10.12-4.87,12.02-10.08l0.07,0.02
	c-1.27,5.25,0.27,10.8,4.26,14.84c2.97-3.92,2.79-10.4-0.08-15.38l0.16-0.1c3.12,4.2,8.18,6.57,13.69,6.26
	c-0.94-4.65-5.6-8.66-10.98-9.97l0.03-0.15c5.32,1.41,11-0.08,15.13-4.12c-4-3.06-10.68-2.83-15.72,0.2l-0.02-0.04
	c4.61-2.38,7.76-6.93,8.38-12.37c-4.89,0.15-9.78,4.29-11.89,9.6l-0.22-0.06c1.22-4.89-0.41-11.13-4.48-15.01
	c-2.77,5.04-2.55,10.87,0.27,15.6l-0.24,0.15c-2.82-4.24-8.66-7.22-14.33-6.72c1.94,5.39,6.44,9.08,11.83,10.11l-0.1,0.4
	c-4.91-1.34-11.27,0.25-15.22,4.36c5.12,2.85,11.08,2.6,15.87-0.35L807.28,348.78z"/>
<path class="st1" d="M803.39,351.2c-4.85,2.45-9.17,6.81-11.97,12.07c-2.42,4.55,2.7,9.48,7.05,6.71c5.16-3.28,9.09-8.2,11.23-14.06
	l0.12,0.03c-1.47,6.08-0.83,12.39,1.74,18.04c2.1,4.62,9.05,3.61,9.59-1.44c0.61-5.76-0.73-12.16-3.85-17.57l0.28-0.17
	c3.57,4.8,8.55,8.27,14.26,10c4.89,1.48,8.61-4.5,5.13-8.25c-3.68-3.97-8.88-7.02-14.54-8.4l0.06-0.26
	c6.21,1.65,12.69,1.08,18.5-1.51c4.67-2.09,3.67-9.06-1.41-9.61c-5.96-0.66-12.61,0.78-18.15,4.12l-0.04-0.07
	c5.25-2.71,9.44-7,12.08-12.27c2.3-4.6-3.02-9.22-7.32-6.41c-4.75,3.11-8.79,8.04-11.04,13.72l-0.39-0.1
	c1.37-5.47,0.74-11.88-1.7-17.62c-2.08-4.87-9.14-3.83-9.69,1.44c-0.62,5.96,0.72,11.98,3.85,17.23l-0.43,0.26
	c-3.21-4.82-8.59-8.73-14.7-10.71c-4.83-1.57-8.71,4.35-5.3,8.12c4.06,4.47,9.47,7.5,15.52,8.65l-0.18,0.72
	c-5.58-1.52-12.21-0.93-18.11,1.59c-4.69,2-3.69,9.03,1.38,9.61c6.2,0.72,12.47-0.69,17.9-4.03L803.39,351.2z"/>
<circle class="st1" cx="812.12" cy="345.63" r="5.01"/>
<g>
	<path class="st2" d="M879.5,72c1.93,0,3.5,1.57,3.5,3.5s-1.57,3.5-3.5,3.5s-3.5-1.57-3.5-3.5S877.57,72,879.5,72 M879.5,70
		c-3.04,0-5.5,2.46-5.5,5.5s2.46,5.5,5.5,5.5s5.5-2.46,5.5-5.5S882.54,70,879.5,70L879.5,70z"/>
</g>
<g>
	<g>
		<path class="st1" d="M568.17,130.73c-0.91,3.79-0.37,7.73,1.49,11.16c1.12,2.06,4.25,1.59,4.69-0.72
			c0.68-3.51-0.04-7.59-1.99-10.99l0.16-0.1c2.23,3,5.46,5.08,9.13,5.91c2.26,0.51,3.98-2.13,2.57-3.97
			c-2.06-2.69-5.35-4.79-8.97-5.67l0.03-0.15c3.86,1.03,7.91,0.53,11.43-1.36c2.08-1.12,1.62-4.25-0.7-4.71
			c-3.62-0.71-7.85,0.05-11.32,2.14l-0.02-0.04c3.29-1.7,5.84-4.5,7.26-7.94c0.89-2.16-1.44-4.28-3.5-3.19
			c-3.13,1.65-5.85,4.73-7.28,8.34l-0.22-0.06c0.86-3.45,0.31-7.57-1.52-11.07c-1.08-2.07-4.24-1.61-4.68,0.69
			c-0.72,3.77-0.02,7.65,1.97,10.98l-0.24,0.15c-1.98-2.98-5.45-5.34-9.3-6.32c-2.38-0.6-4.13,2.12-2.61,4.05
			c2.33,2.96,5.65,4.95,9.4,5.67l-0.1,0.4c-3.48-0.95-7.68-0.43-11.25,1.4c-2.09,1.07-1.64,4.25,0.67,4.7
			c3.86,0.75,7.84,0.02,11.24-2.08l0.07,0.11c-3.04,1.53-5.71,4.41-7.23,7.83c-0.97,2.18,1.33,4.44,3.43,3.31
			c3.41-1.81,6-4.82,7.34-8.5L568.17,130.73z"/>
	</g>
	<g>
		<path class="st2" d="M569.5,122c1.93,0,3.5,1.57,3.5,3.5s-1.57,3.5-3.5,3.5s-3.5-1.57-3.5-3.5S567.57,122,569.5,122 M569.5,120
			c-3.04,0-5.5,2.46-5.5,5.5s2.46,5.5,5.5,5.5s5.5-2.46,5.5-5.5S572.54,120,569.5,120L569.5,120z"/>
	</g>
</g>
<g>
	<g>
		<path class="st1" d="M591.91,334.74c1.46-3.61,1.5-7.6,0.15-11.26c-0.81-2.2-3.97-2.19-4.75,0.02c-1.18,3.37-1.07,7.52,0.37,11.16
			l-0.17,0.07c-1.77-3.3-4.65-5.82-8.16-7.18c-2.17-0.84-4.25,1.52-3.12,3.55c1.65,2.96,4.6,5.52,8.04,6.92l-0.06,0.14
			c-3.67-1.58-7.75-1.68-11.5-0.32c-2.22,0.8-2.22,3.97,0.01,4.76c3.47,1.23,7.78,1.1,11.51-0.46l0.02,0.04
			c-3.5,1.2-6.43,3.6-8.34,6.79c-1.2,2,0.8,4.44,3,3.66c3.34-1.18,6.47-3.82,8.42-7.19l0.21,0.09c-1.36,3.29-1.41,7.45-0.12,11.17
			c0.77,2.2,3.96,2.21,4.73,0.01c1.26-3.62,1.14-7.56-0.34-11.15l0.26-0.11c1.53,3.24,4.61,6.08,8.28,7.61
			c2.26,0.94,4.39-1.49,3.17-3.62c-1.88-3.27-4.87-5.73-8.47-6.98l0.16-0.38c3.3,1.45,7.54,1.55,11.34,0.26
			c2.22-0.76,2.24-3.96,0.03-4.74c-3.71-1.31-7.76-1.16-11.43,0.41l-0.05-0.12c3.23-1.07,6.29-3.53,8.3-6.69
			c1.28-2.02-0.66-4.58-2.91-3.78c-3.64,1.3-6.64,3.89-8.51,7.33L591.91,334.74z"/>
	</g>
	<g>
		<path class="st2" d="M589.5,337c1.93,0,3.5,1.57,3.5,3.5s-1.57,3.5-3.5,3.5s-3.5-1.57-3.5-3.5S587.57,337,589.5,337 M589.5,335
			c-3.04,0-5.5,2.46-5.5,5.5s2.46,5.5,5.5,5.5s5.5-2.46,5.5-5.5S592.54,335,589.5,335L589.5,335z"/>
	</g>
</g>
<g>
	<g>
		<path class="st1" d="M666.1,516.31c-3.73-1.13-7.7-0.82-11.23,0.85c-2.12,1-1.83,4.15,0.45,4.73c3.46,0.88,7.58,0.4,11.09-1.36
			l0.09,0.16c-3.13,2.06-5.38,5.15-6.42,8.77c-0.64,2.23,1.89,4.09,3.81,2.79c2.81-1.91,5.09-5.07,6.18-8.63l0.15,0.04
			c-1.25,3.79-0.98,7.87,0.7,11.48c1,2.14,4.15,1.86,4.74-0.43c0.92-3.57,0.4-7.84-1.48-11.42l0.04-0.02
			c1.51,3.38,4.15,6.09,7.51,7.7c2.1,1.02,4.35-1.19,3.38-3.31c-1.47-3.22-4.38-6.11-7.91-7.75l0.07-0.21
			c3.4,1.06,7.54,0.74,11.14-0.88c2.13-0.96,1.85-4.14-0.41-4.71c-3.72-0.94-7.63-0.46-11.08,1.33l-0.13-0.25
			c3.09-1.81,5.64-5.13,6.84-8.93c0.74-2.34-1.88-4.24-3.89-2.84c-3.09,2.16-5.27,5.36-6.2,9.06l-0.4-0.12
			c1.15-3.42,0.87-7.65-0.75-11.31c-0.95-2.14-4.14-1.88-4.73,0.4c-0.98,3.81-0.47,7.83,1.43,11.34l-0.11,0.06
			c-1.36-3.12-4.07-5.95-7.4-7.67c-2.12-1.09-4.51,1.07-3.51,3.24c1.61,3.51,4.47,6.27,8.06,7.82L666.1,516.31z"/>
	</g>
	<g>
		<path class="st2" d="M671.5,515c1.93,0,3.5,1.57,3.5,3.5s-1.57,3.5-3.5,3.5s-3.5-1.57-3.5-3.5S669.57,515,671.5,515 M671.5,513
			c-3.04,0-5.5,2.46-5.5,5.5s2.46,5.5,5.5,5.5s5.5-2.46,5.5-5.5S674.54,513,671.5,513L671.5,513z"/>
	</g>
</g>
<g>
	<g>
		<path class="st1" d="M864.17,512.73c-0.91,3.79-0.37,7.73,1.49,11.16c1.12,2.06,4.25,1.59,4.69-0.72
			c0.68-3.51-0.04-7.59-1.99-10.99l0.16-0.1c2.23,3,5.46,5.08,9.13,5.91c2.26,0.51,3.98-2.13,2.57-3.97
			c-2.06-2.69-5.35-4.79-8.97-5.67l0.03-0.15c3.86,1.03,7.91,0.53,11.43-1.36c2.08-1.12,1.62-4.25-0.7-4.71
			c-3.62-0.71-7.85,0.05-11.32,2.14l-0.02-0.04c3.29-1.7,5.84-4.5,7.26-7.94c0.89-2.16-1.44-4.28-3.5-3.19
			c-3.13,1.65-5.85,4.73-7.28,8.34l-0.22-0.06c0.86-3.45,0.31-7.57-1.52-11.07c-1.08-2.07-4.24-1.61-4.68,0.69
			c-0.72,3.77-0.02,7.65,1.97,10.98l-0.24,0.15c-1.98-2.98-5.45-5.34-9.3-6.32c-2.38-0.6-4.13,2.12-2.61,4.05
			c2.33,2.96,5.65,4.95,9.4,5.67l-0.1,0.4c-3.48-0.95-7.68-0.43-11.25,1.4c-2.09,1.07-1.64,4.25,0.67,4.7
			c3.86,0.75,7.84,0.02,11.24-2.08l0.07,0.11c-3.04,1.53-5.71,4.41-7.23,7.83c-0.97,2.18,1.33,4.44,3.43,3.31
			c3.41-1.81,6-4.82,7.34-8.5L864.17,512.73z"/>
	</g>
	<g>
		<path class="st2" d="M865.5,504c1.93,0,3.5,1.57,3.5,3.5s-1.57,3.5-3.5,3.5s-3.5-1.57-3.5-3.5S863.57,504,865.5,504 M865.5,502
			c-3.04,0-5.5,2.46-5.5,5.5s2.46,5.5,5.5,5.5s5.5-2.46,5.5-5.5S868.54,502,865.5,502L865.5,502z"/>
	</g>
</g>
<path class="st1" d="M568.01-0.11C568.01-0.11,616,50,609,117s-108,86-82,203s181.42,159.27,181.42,159.27S809,497,841,563"/>
<path class="st1" d="M609,117c0,0-11.76,12.32-28.38,10.66"/>
<path class="st1" d="M525.76,313.97c0,0,19.57,27.33,54.4,21.68"/>
<path class="st1" d="M657.97,459.77c0,0,17.51,8.23,17.77,47.73"/>
<path class="st1" d="M784.98,507.5c0,0,40.29,13.5,71.65,5.5"/>
<path class="st1" d="M982.8,43.47c9.65-8.79,12.63-24.35,6.68-33.12C980.61,17.99,977.88,31.02,982.8,43.47z"/>
<path class="st1" d="M1012.58,91.52c10.16-8.18,14.09-23.53,8.69-32.65C1011.94,65.96,1008.42,78.8,1012.58,91.52z"/>
<path class="st1" d="M1049.02,134.08c10.33-7.97,14.57-23.24,9.36-32.46C1048.91,108.51,1045.13,121.27,1049.02,134.08z"/>
<path class="st1" d="M1075.47,173.12c9.62-8.82,12.55-24.39,6.58-33.14C1073.2,147.65,1070.51,160.69,1075.47,173.12z"/>
<path class="st1" d="M1075.11,212.19c12.43-3.97,21.62-16.87,19.88-27.32C1083.74,188.11,1075.83,198.82,1075.11,212.19z"/>
<path class="st1" d="M1098.82,242.48c6.81-11.13,5.33-26.91-2.83-33.66C1089.6,218.62,1090.61,231.9,1098.82,242.48z"/>
<path class="st1" d="M1096.5,185.8c1.9,12.91,13.14,24.07,23.73,24.04C1118.86,198.22,1109.57,188.67,1096.5,185.8z"/>
<path class="st1" d="M1091.79,164.62c3.97,12.43,16.87,21.62,27.32,19.88C1115.87,173.24,1105.16,165.33,1091.79,164.62z"/>
<path class="st1" d="M1071.7,118.28c6.02,11.58,20.3,18.45,30.29,14.95C1096.89,122.69,1084.99,116.71,1071.7,118.28z"/>
<path class="st1" d="M1037.54,74.14c7.58,10.62,22.68,15.42,32.09,10.56C1063.1,74.99,1050.48,70.73,1037.54,74.14z"/>
<g>
	<g>
		<path class="st1" d="M974.06,76.14c-2.53-2.97-6.04-4.85-9.91-5.35c-2.33-0.3-3.78,2.5-2.18,4.22c2.44,2.61,6.16,4.44,10.06,4.85
			l-0.02,0.18c-3.74,0.04-7.31,1.43-10.14,3.91c-1.75,1.53-0.62,4.47,1.7,4.41c3.39-0.09,7.02-1.51,9.86-3.92l0.1,0.11
			c-3.1,2.52-5.08,6.09-5.62,10.04c-0.32,2.34,2.49,3.81,4.22,2.2c2.7-2.51,4.58-6.38,4.93-10.41l0.05,0
			c-0.56,3.66,0.21,7.36,2.15,10.54c1.22,1.99,4.31,1.35,4.64-0.96c0.5-3.5-0.39-7.51-2.47-10.79l0.17-0.14
			c2.28,2.73,5.94,4.7,9.85,5.28c2.31,0.34,3.8-2.49,2.2-4.19c-2.62-2.8-6.17-4.51-10.04-4.87l0.02-0.28
			c3.57,0.15,7.52-1.27,10.58-3.81c1.89-1.57,0.71-4.58-1.74-4.49c-3.76,0.15-7.33,1.66-10.11,4.27l-0.27-0.32
			c2.81-2.26,4.87-5.96,5.48-9.92c0.36-2.32-2.47-3.82-4.19-2.22c-2.88,2.68-4.62,6.33-4.93,10.32l-0.13-0.01
			c0.55-3.36-0.21-7.21-2.08-10.45c-1.19-2.07-4.37-1.54-4.7,0.83c-0.54,3.82,0.37,7.69,2.55,10.94L974.06,76.14z"/>
	</g>
	<g>
		<path class="st2" d="M977.42,77.4L977.42,77.4c0.67,0,1.32,0.19,1.89,0.56c0.79,0.51,1.33,1.29,1.53,2.2s0.03,1.85-0.48,2.64
			c-0.65,1.01-1.75,1.61-2.95,1.61c-0.67,0-1.32-0.19-1.89-0.56c-1.62-1.04-2.1-3.21-1.05-4.84C975.12,78,976.22,77.4,977.42,77.4
			 M977.42,75.4c-1.81,0-3.58,0.89-4.63,2.53c-1.64,2.56-0.9,5.96,1.65,7.6c0.92,0.59,1.95,0.87,2.97,0.87
			c1.81,0,3.58-0.89,4.63-2.53c1.64-2.56,0.9-5.96-1.65-7.6C979.47,75.69,978.44,75.4,977.42,75.4L977.42,75.4z"/>
	</g>
</g>
<g>
	<g>
		<path class="st1" d="M1142.63,180.2c-2.82,2.69-4.49,6.31-4.78,10.2c-0.17,2.34,2.72,3.63,4.34,1.93
			c2.47-2.58,4.07-6.41,4.26-10.32l0.19,0c0.26,3.74,1.84,7.22,4.48,9.9c1.63,1.65,4.5,0.36,4.3-1.95
			c-0.28-3.38-1.91-6.92-4.48-9.62l0.11-0.11c2.69,2.95,6.37,4.72,10.35,5.03c2.36,0.18,3.66-2.7,1.95-4.34
			c-2.66-2.55-6.63-4.2-10.68-4.32l0-0.05c3.68,0.35,7.34-0.63,10.4-2.75c1.92-1.33,1.1-4.38-1.23-4.57
			c-3.53-0.3-7.48,0.82-10.63,3.08l-0.15-0.16c2.59-2.44,4.36-6.21,4.71-10.13c0.21-2.32-2.7-3.65-4.31-1.95
			c-2.64,2.78-4.15,6.42-4.28,10.3l-0.28-0.01c-0.06-3.58-1.7-7.44-4.41-10.34c-1.67-1.79-4.62-0.45-4.38,1.99
			c0.36,3.75,2.08,7.22,4.84,9.85l-0.3,0.29c-2.41-2.68-6.23-4.52-10.22-4.9c-2.33-0.22-3.67,2.69-1.98,4.31
			c2.84,2.72,6.59,4.25,10.58,4.33l0,0.13c-3.38-0.35-7.19,0.62-10.32,2.68c-2,1.31-1.28,4.45,1.1,4.64
			c3.85,0.32,7.66-0.81,10.77-3.18L1142.63,180.2z"/>
	</g>
	<g>
		<path class="st2" d="M1146.58,173.02L1146.58,173.02c0.67,0,1.32,0.19,1.89,0.56c0.79,0.51,1.33,1.29,1.53,2.2
			c0.2,0.91,0.03,1.85-0.48,2.64c-0.65,1.01-1.75,1.61-2.95,1.61c-0.67,0-1.32-0.19-1.89-0.56c-0.79-0.51-1.33-1.29-1.53-2.2
			c-0.2-0.91-0.03-1.85,0.48-2.64C1144.27,173.62,1145.38,173.02,1146.58,173.02 M1146.58,171.02c-1.81,0-3.58,0.89-4.63,2.53
			c-1.64,2.56-0.9,5.96,1.65,7.6c0.92,0.59,1.95,0.87,2.97,0.87c1.81,0,3.58-0.89,4.63-2.53c1.64-2.56,0.9-5.96-1.65-7.6
			C1148.62,171.31,1147.59,171.02,1146.58,171.02L1146.58,171.02z"/>
	</g>
</g>
<path class="st1" d="M984.82,1.86c28.97,56.65,44.87,66,44.87,66s75.03,69.29,66.27,142.11"/>
<path class="st1" d="M1243.01-94.11"/>
<path class="st1" d="M997.78,24.18c0,0,10.29,16.39-10.85,49.76"/>
<path class="st1" d="M1078.84,133c0,0,26.6,33.14,57.31,43.36"/>
<path class="st1" d="M689.85,213.05c0,0-3.55-107.27,25.8-213.16"/>
<path class="st1" d="M817.12,330.46c0,0,89.14-61.28,95.88-329.46"/>
<g>
	<rect x="1415" y="-339" class="st3" width="235" height="142"/>
</g>
</svg>
